Coordinates
version=1
nRows=33
nColumns=33
inDegrees=yes

Units are S.I. units (second, meters, Newtons, ...)
Angles are in degrees.

endheader
time	ground_thorax_rot_x	ground_thorax_rot_y	ground_thorax_rot_z	ground_thorax_tx	ground_thorax_ty	ground_thorax_tz	clav_prot_r	clav_elev_r	scapula_abduction_r	scapula_elevation_r	scapula_upward_rot_r	scapula_winging_r	shoulder_elv_r	plane_of_elev_r	axial_rot_r	elbow_flexion_r	pro_sup_r	wrist_flex_r	wrist_dev_r	clav_prot_l	clav_elev_l	scapula_abduction_l	scapula_elevation_l	scapula_upward_rot_l	scapula_winging_l	shoulder_elv_l	plane_of_elev_l	axial_rot_l	elbow_flexion_l	pro_sup_l	wrist_flex_l	wrist_dev_l	
4.0800	-89.999904	89.999818	-89.999812	68.973505	780.789228	-41.409967	25.620651	37.754570	44.999989	44.999828	8.458620	-2195.267589	-2411.593595	31.699975	-48.447215	1440.744669	169.290370	11.978813	13.253370	-44.999894	23.747069	44.996514	-20.596225	-45.000000	-2051.810688	-1342.930197	12.058739	-70.198641	3229.790049	42.855403	12.080420	-14.698976	
4.0900	-89.999828	89.999674	-89.999664	68.943539	780.385584	-41.533931	25.686102	37.689135	44.999981	44.999692	8.540512	-2195.220001	-2411.578558	31.760908	-47.869693	1440.755907	169.561336	12.000089	13.200314	-44.999809	23.669562	44.993773	-20.571617	-45.000000	-2051.976676	-1342.753612	12.026510	-70.434695	3229.847678	42.990808	11.995950	-14.832148	
4.1000	-89.999692	89.999416	-89.999398	68.815237	780.012166	-41.641361	25.783212	37.584014	44.999966	44.999449	8.623472	-2195.216363	-2411.567254	31.881543	-47.267425	1440.739432	169.840327	11.981335	13.085268	-44.999658	23.586170	44.988798	-20.568327	-45.000000	-2052.161592	-1342.593855	11.969333	-70.788809	3229.915705	43.148924	11.810775	-14.892859	
4.1100	-89.999449	89.998954	-89.998922	68.473923	779.713759	-41.715559	25.838284	37.518026	44.999938	44.999013	8.726305	-2195.145265	-2411.565632	31.954412	-46.685115	1440.759224	170.121207	11.986230	13.015823	-44.999388	23.482183	44.980065	-20.537304	-45.000000	-2052.339647	-1342.412863	11.929311	-71.020597	3229.992161	43.345522	11.692489	-15.025241	
4.1200	-89.999012	89.998127	-89.998068	67.908731	779.483916	-41.753709	25.878451	37.465703	44.999890	44.998231	8.852682	-2195.036437	-2411.580980	32.011256	-46.109291	1440.804352	170.395902	12.013989	12.962519	-44.998904	23.362965	44.963925	-20.493049	-45.000000	-2052.502178	-1342.226476	11.915391	-71.204989	3230.072508	43.575287	11.619376	-15.181278	
4.1300	-89.998231	89.996645	-89.996540	67.096390	779.322201	-41.752094	25.908260	37.418524	44.999802	44.996832	8.997452	-2194.887803	-2411.602845	32.057333	-45.518000	1440.852457	170.665715	12.042513	12.909358	-44.998037	23.222096	44.936399	-20.440868	-45.000000	-2052.675209	-1342.035356	11.896800	-71.376928	3230.144381	43.827394	11.559792	-15.363863	
4.1400	-89.996831	89.993990	-89.993801	66.043118	779.214742	-41.712525	25.934670	37.374842	44.999646	44.994325	9.168415	-2194.715984	-2411.646722	32.102816	-44.921515	1440.921439	170.918256	12.102419	12.858708	-44.996483	23.064678	44.883226	-20.378833	-45.000000	-2052.809561	-1341.855597	11.916838	-71.546937	3230.207474	44.093179	11.546902	-15.536290	
4.1500	-89.994323	89.989236	-89.988898	64.769889	779.143930	-41.640160	25.965273	37.320760	44.999366	44.989836	9.349363	-2194.520198	-2411.691957	32.150833	-44.285553	1440.975932	171.163695	12.155521	12.788767	-44.993701	22.891481	44.798770	-20.315158	-45.000000	-2052.946459	-1341.674823	11.920728	-71.764833	3230.259779	44.346917	11.525812	-15.717067	
4.1600	-89.989829	89.980714	-89.980109	63.297373	779.095112	-41.541745	25.998357	37.262329	44.998864	44.981788	9.547973	-2194.327285	-2411.759119	32.216109	-43.632934	1441.044197	171.398223	12.241330	12.708551	-44.988713	22.711629	44.663860	-20.239222	-45.000000	-2053.022564	-1341.512596	11.957174	-72.018375	3230.309344	44.587651	11.531854	-15.846209	
4.1700	-89.981788	89.965464	-89.964379	61.645085	779.057415	-41.424582	26.032474	37.190536	44.997965	44.967390	9.743962	-2194.120503	-2411.823010	32.283716	-42.930454	1441.090024	171.647107	12.312417	12.600658	-44.979790	22.522736	44.489491	-20.169615	-45.000000	-2053.111183	-1341.352228	11.964655	-72.331442	3230.351258	44.797231	11.509553	-15.977423	
4.1800	-89.967358	89.938107	-89.936164	59.829454	779.023450	-41.296079	26.070907	37.103637	44.996356	44.941552	9.939132	-2193.931238	-2411.903666	32.371629	-42.187981	1441.146691	171.916540	12.412753	12.484999	-44.963775	22.341945	44.258943	-20.094533	-45.000000	-2053.150002	-1341.205552	11.992722	-72.696982	3230.402125	44.988002	11.503579	-16.044374	
4.1900	-89.941582	89.889213	-89.885733	57.863767	778.990020	-41.163209	26.107041	36.992730	44.993469	44.895397	10.116238	-2193.726466	-2411.979012	32.445042	-41.365232	1441.180289	172.235633	12.501996	12.361104	-44.935177	22.170444	43.995055	-20.036031	-45.000000	-2053.230609	-1341.041842	11.986171	-73.111508	3230.452195	45.148106	11.486378	-16.148063	
4.2000	-89.895211	89.801320	-89.795086	55.757407	778.958115	-41.032888	26.146384	36.843483	44.988311	44.812363	10.274819	-2193.549880	-2412.074525	32.525915	-40.441547	1441.219809	172.612662	12.619704	12.235531	-44.883698	22.016297	43.671826	-19.986502	-45.000000	-2053.293832	-1340.885532	11.995964	-73.605557	3230.505750	45.309424	11.484084	-16.189460	
4.2100	-89.812698	89.644746	-89.633577	53.515831	778.932891	-40.912572	26.181605	36.630556	44.979035	44.664624	10.393910	-2193.388515	-2412.183874	32.585677	-39.341189	1441.241698	173.073869	12.725483	12.104243	-44.792188	21.875041	43.300138	-19.976679	-45.000000	-2053.434498	-1340.717084	11.982119	-74.197214	3230.539990	45.484283	11.468549	-16.273540	
4.2200	-89.663356	89.361855	-89.341851	51.140957	778.925383	-40.812930	26.215063	36.304050	44.962523	44.397194	10.454507	-2193.305441	-2412.343071	32.639118	-37.945655	1441.278895	173.629607	12.866811	11.981182	-44.626302	21.756857	42.811076	-20.001521	-45.000000	-2053.592684	-1340.557415	11.995860	-74.966755	3230.579373	45.738145	11.462928	-16.283798	
4.2300	-89.400132	88.861877	-88.826035	48.631448	778.952097	-40.748824	26.237908	35.787589	44.932650	43.925925	10.415279	-2193.338224	-2412.576100	32.664723	-36.054983	1441.310112	174.310329	13.010861	11.865123	-44.334636	21.664734	42.164468	-20.101980	-45.000000	-2053.871968	-1340.391793	12.006681	-75.989012	3230.610639	46.139975	11.433880	-16.330610	
4.2400	-88.916650	87.947396	-87.883218	45.981629	779.045929	-40.751451	26.239445	34.908449	44.879963	43.060043	10.200260	-2193.625540	-2412.967519	32.648288	-33.226114	1441.360987	175.149800	13.220643	11.773805	-43.796874	21.615913	41.179675	-20.318660	-45.000000	-2054.281239	-1340.249101	12.071024	-77.489639	3230.669361	46.840120	11.396360	-16.294274	
4.2500	-88.084009	86.361988	-86.246954	43.183616	779.245888	-40.859105	26.205803	33.462321	44.783286	41.569584	9.680007	-2194.298258	-2413.598110	32.547966	-28.914293	1441.426555	176.209812	13.495159	11.712428	-42.876304	21.622319	39.691955	-20.729978	-45.000000	-2054.957123	-1340.132221	12.180240	-79.714735	3230.763244	48.104959	11.311824	-16.235865	
4.2600	-86.499238	83.374993	-83.169138	40.212574	779.664220	-41.187611	26.077766	30.799363	44.616531	38.730632	8.583366	-2195.831070	-2414.762561	32.269390	-21.410039	1441.554588	177.610387	13.951055	11.715852	-41.108069	21.742193	37.053550	-21.523708	-45.000000	-2056.129391	-1340.093896	12.424209	-83.477481	3230.929388	50.320958	11.154914	-15.997235	
4.2700	-83.920809	78.434948	-78.065633	37.056078	780.369987	-41.807602	25.863397	26.532031	44.299899	34.117286	6.519077	-2198.487694	-2416.599318	31.763544	-9.728689	1441.748798	179.517689	14.617882	11.787160	-38.273449	22.005211	32.969610	-22.827984	-45.000000	-2057.992734	-1340.162562	12.796669	-89.229579	3231.223803	54.470788	10.919489	-15.676392	
4.2800	-78.575382	68.440015	-67.780059	33.612789	781.841844	-43.215051	25.247278	17.799246	43.782757	24.535872	2.507734	-2204.318212	-2420.427603	30.558704	13.663170	1442.169862	182.382642	15.889884	12.040515	-32.266895	22.654472	24.591583	-25.523640	-45.000000	-2061.781454	-1340.489992	13.603148	-100.536690	3231.659458	61.412863	10.318431	-14.828636	
4.2900	-71.028662	53.734727	-52.548104	29.949871	783.933166	-45.240181	24.570622	5.569020	42.716737	11.050560	-4.422819	-2212.614248	-2425.665226	28.876131	46.199196	1442.758650	186.516966	17.664692	12.411452	-24.100351	23.598600	13.201783	-29.312346	-45.000000	-2066.998258	-1341.125598	14.644318	-116.162953	3232.595165	75.246972	9.745498	-13.985908	
4.3000	-61.843687	35.494959	-33.594532	26.134777	786.510951	-47.724709	23.843986	-9.276587	41.197050	-5.371200	-13.627883	-2222.785497	-2431.954732	26.831133	85.556534	1443.489797	191.434598	19.813246	12.879079	-14.292677	24.767698	-0.445852	-33.913614	-45.000000	-2073.253800	-1342.011440	15.864014	-134.986196	3233.924207	94.528054	9.218553	-13.150726	
4.3100	-53.454384	18.056337	-15.342968	22.351894	788.941550	-49.985419	23.465632	-22.824783	39.333239	-20.376000	-23.641951	-2232.069250	-2437.521828	25.038008	121.404327	1444.162964	196.301107	21.803283	13.288487	-5.677979	25.826464	-12.508233	-38.115895	-45.000000	-2078.836107	-1342.941996	16.864260	-152.100188	3235.589664	117.613565	9.097814	-12.853235	
4.3200	-46.167538	2.792968	0.660778	18.635718	791.158418	-51.940504	23.161237	-34.636280	37.606140	-33.480000	-32.664988	-2240.225824	-2442.355851	23.469056	152.616406	1444.773950	200.297735	23.530552	13.658693	1.803503	26.753472	-22.964600	-41.781332	-45.000000	-2083.650659	-1343.776008	17.725431	-166.970402	3237.116182	138.765386	9.041091	-12.669728	
4.3300	-41.794916	-7.122148	11.181120	15.112040	792.680322	-53.077255	23.255951	-41.766062	36.093801	-41.400000	-39.675047	-2245.160972	-2445.104602	22.601105	171.449722	1445.165622	203.023062	24.615006	13.873491	5.946931	27.303163	-28.886045	-43.996175	-45.000000	-2086.393713	-1344.373169	18.153400	-175.936803	3238.502787	157.041889	9.362346	-12.994694	
4.3400	-39.878471	-11.829330	16.245835	11.743127	793.633765	-53.531040	23.419592	-45.000000	35.153541	-45.000000	-43.618146	-2247.463526	-2446.265533	22.245503	180.000000	1445.379293	204.155391	25.114920	13.989392	7.633138	27.555121	-31.380926	-45.000000	-45.000000	-2087.508271	-1344.671175	18.308624	-180.000000	3239.362188	168.200816	9.671265	-13.365876	
4.3500	-39.995485	-12.227994	16.791451	8.492457	794.123282	-53.417529	23.657027	-45.000000	34.704625	-45.000000	-45.000000	-2247.566006	-2446.101954	22.323316	180.000000	1445.437331	204.126586	25.136319	14.019236	7.247496	27.561338	-31.011790	-45.000000	-45.000000	-2087.276891	-1344.718651	18.234689	-180.000000	3239.789157	173.401196	9.971941	-13.775499	
4.3600	-40.131804	-11.889019	16.459921	5.224721	794.677872	-53.298036	23.634496	-45.000000	34.666120	-45.000000	-45.000000	-2247.746574	-2446.087269	22.318031	180.000000	1445.496582	203.637978	25.111043	14.086761	7.145769	27.591701	-30.964119	-45.000000	-45.000000	-2087.134970	-1344.672960	18.255001	-180.000000	3239.812948	173.883050	9.944077	-13.802132	
4.3700	-40.252654	-11.579869	16.150611	1.942743	795.297284	-53.173793	23.619513	-45.000000	34.639969	-45.000000	-45.000000	-2247.944823	-2446.068943	22.317515	180.000000	1445.547663	203.324131	25.087465	14.164720	7.011263	27.634114	-30.897345	-45.000000	-45.000000	-2086.991817	-1344.638431	18.277888	-180.000000	3239.841590	174.349331	9.929150	-13.833324	
4.3800	-40.370240	-11.274662	15.841320	-1.350414	795.980636	-53.046607	23.607325	-45.000000	34.606278	-45.000000	-45.000000	-2248.143589	-2446.046667	22.315549	180.000000	1445.588036	203.103687	25.062973	14.250098	6.888341	27.678335	-30.834109	-45.000000	-45.000000	-2086.851753	-1344.605721	18.297415	-180.000000	3239.868421	174.805367	9.914964	-13.871715	
4.3900	-40.487951	-10.972295	15.526090	-4.651704	796.727257	-52.918904	23.601941	-45.000000	34.563244	-45.000000	-45.000000	-2248.337191	-2446.025596	22.310342	180.000000	1445.627214	202.938902	25.038620	14.340144	6.784278	27.718679	-30.776555	-45.000000	-45.000000	-2086.717981	-1344.573766	18.310814	-180.000000	3239.893147	175.247863	9.898496	-13.916411	
4.4000	-40.604165	-10.672189	15.204224	-7.955458	797.536952	-52.793053	23.597561	-45.000000	34.520667	-45.000000	-45.000000	-2248.533421	-2446.007497	22.303087	180.000000	1445.656431	202.812236	25.020092	14.432389	6.683955	27.755116	-30.721280	-45.000000	-45.000000	-2086.588351	-1344.538175	18.322607	-180.000000	3239.913867	175.675057	9.880221	-13.966267	
